<svg id="Capa_1" data-name="Capa 1" xmlns="http://www.w3.org/2000/svg" viewBox="0 0 288.52 100.24"><defs><style>.cls-1{fill:#020202;}</style></defs><title>logo publix final</title><path class="cls-1" d="M-.11,81.94V28.66a31.55,31.55,0,0,1,2-11.44A25,25,0,0,1,15.66,2.81,24.88,24.88,0,0,1,25.39.88,27.71,27.71,0,0,1,36.21,2.93a25,25,0,0,1,8.37,5.63,24.64,24.64,0,0,1,5.29,8.26,26.47,26.47,0,0,1,1.82,9.67A28.3,28.3,0,0,1,50,36.29a25.29,25.29,0,0,1-4.78,8.14A22.94,22.94,0,0,1,38,49.89a19.78,19.78,0,0,1-8.77,2H14.81v-10H26.19a14.4,14.4,0,0,0,10.64-4.16Q41,33.55,41,26.49T36.61,15.11a15.39,15.39,0,0,0-11.1-4.21,14.09,14.09,0,0,0-10.7,4.44q-4.22,4.44-4.22,12V81.94Z" transform="translate(0.11 -0.88)"/><path class="cls-1" d="M104.06,27.29V59.17q0,10.59-6.71,17.31A20.87,20.87,0,0,1,90,81.37a26,26,0,0,1-18.56,0,20.92,20.92,0,0,1-7.34-4.89q-6.72-6.72-6.71-17.31V27.29h10V59.17a14.16,14.16,0,0,0,3.93,10.3,12.92,12.92,0,0,0,18.79,0,14.2,14.2,0,0,0,3.93-10.3V27.29Z" transform="translate(0.11 -0.88)"/><path class="cls-1" d="M123.76,2.25v49q0,10.81,5,16.57a15.89,15.89,0,0,0,12.58,5.75,17.29,17.29,0,0,0,13.15-5.36q5.07-5.34,5.07-13.66t-4.95-13.6q-5-5.19-13-5.18a20.59,20.59,0,0,0-7.06,1.42,31,31,0,0,0-6.72,3.36V30a30.89,30.89,0,0,1,15.49-3.87,25,25,0,0,1,9.9,2.05A26.29,26.29,0,0,1,161.61,34a27.64,27.64,0,0,1,5.81,8.71,26.51,26.51,0,0,1,2.11,10.53,33.57,33.57,0,0,1-1.94,11.5,29.3,29.3,0,0,1-5.58,9.5,25.19,25.19,0,0,1-8.93,6.5,29,29,0,0,1-11.79,2.33,27.68,27.68,0,0,1-11-2.16,25.46,25.46,0,0,1-8.77-6.15,28.17,28.17,0,0,1-5.75-9.57A35,35,0,0,1,113.74,53V2.25Z" transform="translate(0.11 -0.88)"/><rect class="cls-1" x="180.23" y="1.37" width="10.02" height="79.69"/><path class="cls-1" d="M209.2,10.9a6.19,6.19,0,0,1,8.77,0,6.2,6.2,0,0,1,0,8.42,6.19,6.19,0,0,1-8.77,0,6.2,6.2,0,0,1,0-8.42m-.63,16.39h10V81.94h-10Z" transform="translate(0.11 -0.88)"/><path class="cls-1" d="M72.88,97.58V93.39a1.87,1.87,0,0,0-.71-1.55,2.64,2.64,0,0,0-1.72-.56,2.27,2.27,0,0,0-1.77.75A2.68,2.68,0,0,0,68,93.89a2.57,2.57,0,0,0,.69,1.8,2.3,2.3,0,0,0,1.75.74,1.94,1.94,0,0,0,1-.28,3,3,0,0,0,.85-.74V97a4.12,4.12,0,0,1-.93.54,2.89,2.89,0,0,1-1.09.18,3.43,3.43,0,0,1-1.47-.31,3.39,3.39,0,0,1-1.17-.85,4,4,0,0,1-.76-1.27,4.35,4.35,0,0,1-.26-1.53,4.08,4.08,0,0,1,.26-1.5,3.57,3.57,0,0,1,.77-1.21,3.34,3.34,0,0,1,1.22-.81A4.25,4.25,0,0,1,70.48,90a3.82,3.82,0,0,1,2.75,1,3.4,3.4,0,0,1,1,2.57v4.07Z" transform="translate(0.11 -0.88)"/><path class="cls-1" d="M81,97.24a5.05,5.05,0,0,1-.88.36,3.4,3.4,0,0,1-.88.14,4.18,4.18,0,0,1-1.51-.28,3.69,3.69,0,0,1-1.22-.8A3.83,3.83,0,0,1,75.36,94a4.39,4.39,0,0,1,.27-1.55,3.67,3.67,0,0,1,.79-1.28,3.6,3.6,0,0,1,1.22-.84A3.86,3.86,0,0,1,79.21,90a3.58,3.58,0,0,1,1.51.31,3.47,3.47,0,0,1,1.16.83,3.78,3.78,0,0,1,.74,1.19,3.82,3.82,0,0,1,.25,1.37V97a4.13,4.13,0,0,1-1.08,3.08A3.88,3.88,0,0,1,79,101.12a7.78,7.78,0,0,1-2.46-.43l.33-1.25c.46.13.84.22,1.14.28a4.2,4.2,0,0,0,.93.1,3.69,3.69,0,0,0,1-.12,2.31,2.31,0,0,0,.82-.39,1.83,1.83,0,0,0,.59-.74,2.53,2.53,0,0,0,.23-1.11V94a2.78,2.78,0,0,0-.69-2,2.18,2.18,0,0,0-1.67-.73,2.14,2.14,0,0,0-1.79.79,3.05,3.05,0,0,0-.63,2,2.23,2.23,0,0,0,.71,1.73,2.5,2.5,0,0,0,1.79.67,2.19,2.19,0,0,0,.83-.16,7.46,7.46,0,0,0,.91-.44Z" transform="translate(0.11 -0.88)"/><path class="cls-1" d="M86.4,95.13,85.84,94,89.52,92a2.62,2.62,0,0,0-.74-.54,2.15,2.15,0,0,0-1-.17,2.31,2.31,0,0,0-1.75.72,2.84,2.84,0,0,0,0,3.71,2.31,2.31,0,0,0,1.75.72,2.28,2.28,0,0,0,1.7-.59,3.62,3.62,0,0,0,.8-1.74l1.38.17a3.92,3.92,0,0,1-.37,1.37,3.75,3.75,0,0,1-.83,1.1,3.65,3.65,0,0,1-1.2.73,4.05,4.05,0,0,1-1.48.27,4.1,4.1,0,0,1-1.48-.28,3.9,3.9,0,0,1-1.23-.8,3.86,3.86,0,0,1-.85-1.24A3.93,3.93,0,0,1,84,93.85a3.82,3.82,0,0,1,2.39-3.6A4.1,4.1,0,0,1,87.83,90a3.74,3.74,0,0,1,2.16.62,4.3,4.3,0,0,1,1.44,1.74Z" transform="translate(0.11 -0.88)"/><path class="cls-1" d="M92.82,97.58V93.24a3.19,3.19,0,0,1,.92-2.36,2.71,2.71,0,0,1,1-.67A3.3,3.3,0,0,1,96,90a3.25,3.25,0,0,1,1.26.24,2.63,2.63,0,0,1,1,.67,3.15,3.15,0,0,1,.92,2.36v4.34H97.83V93.24a1.92,1.92,0,0,0-.54-1.41,1.76,1.76,0,0,0-2.56,0,1.92,1.92,0,0,0-.54,1.41v4.34Z" transform="translate(0.11 -0.88)"/><path class="cls-1" d="M105.6,91.43h-1a2.67,2.67,0,0,0-1.8.65,2.45,2.45,0,0,0,0,3.55,2.67,2.67,0,0,0,1.8.65h1v1.3h-1.3a3.65,3.65,0,0,1-1.33-.25,3.88,3.88,0,0,1-1.21-.73,3.48,3.48,0,0,1-.88-1.18,4,4,0,0,1,0-3.12,3.58,3.58,0,0,1,.88-1.18,3.73,3.73,0,0,1,1.21-.74,3.65,3.65,0,0,1,1.33-.25h1.3Z" transform="translate(0.11 -0.88)"/><path class="cls-1" d="M107.49,87.89a.78.78,0,0,1,.6-.24.81.81,0,0,1,.6.24.89.89,0,0,1,.22.58.87.87,0,0,1-.22.57.79.79,0,0,1-.6.25.76.76,0,0,1-.6-.25.83.83,0,0,1-.23-.57.85.85,0,0,1,.23-.58m-.09,2.24h1.37v7.45H107.4Z" transform="translate(0.11 -0.88)"/><path class="cls-1" d="M116.89,97.58V93.39a1.87,1.87,0,0,0-.71-1.55,2.63,2.63,0,0,0-1.71-.56,2.27,2.27,0,0,0-1.78.75,2.68,2.68,0,0,0-.68,1.86,2.57,2.57,0,0,0,.7,1.8,2.29,2.29,0,0,0,1.74.74,2,2,0,0,0,1-.28,3.07,3.07,0,0,0,.84-.74V97a4.3,4.3,0,0,1-.92.54,2.94,2.94,0,0,1-1.1.18,3.43,3.43,0,0,1-1.47-.31,3.49,3.49,0,0,1-1.17-.85,4,4,0,0,1-.76-1.27,4.59,4.59,0,0,1-.26-1.53,4.3,4.3,0,0,1,.26-1.5,3.57,3.57,0,0,1,.77-1.21,3.43,3.43,0,0,1,1.22-.81,4.3,4.3,0,0,1,1.6-.29,3.79,3.79,0,0,1,2.74,1,3.37,3.37,0,0,1,1,2.57v4.07Z" transform="translate(0.11 -0.88)"/><path class="cls-1" d="M131.2,86.71v6.93a4.7,4.7,0,0,1-.28,1.66,3.76,3.76,0,0,1-.78,1.3,3.38,3.38,0,0,1-1.2.84,3.71,3.71,0,0,1-1.49.3,4,4,0,0,1-1.61-.32,3.51,3.51,0,0,1-1.22-.88,3.91,3.91,0,0,1-.76-1.3,4.5,4.5,0,0,1-.26-1.57,3.66,3.66,0,0,1,.28-1.44,3.84,3.84,0,0,1,.8-1.19,3.63,3.63,0,0,1,1.15-.79,3.55,3.55,0,0,1,1.35-.28,4.16,4.16,0,0,1,2.11.53v1.43a4.22,4.22,0,0,0-.9-.46,2.78,2.78,0,0,0-1-.19,2.34,2.34,0,0,0-1.77.7,2.85,2.85,0,0,0,0,3.72,2.36,2.36,0,0,0,1.79.73,2.16,2.16,0,0,0,1.71-.78,3.37,3.37,0,0,0,.68-2.26V86.71Z" transform="translate(0.11 -0.88)"/><path class="cls-1" d="M134.73,95.13,134.17,94,137.85,92a2.62,2.62,0,0,0-.74-.54,2.15,2.15,0,0,0-1-.17,2.31,2.31,0,0,0-1.75.72,2.84,2.84,0,0,0,0,3.71,2.31,2.31,0,0,0,1.75.72,2.28,2.28,0,0,0,1.7-.59,3.52,3.52,0,0,0,.79-1.74l1.39.17a3.73,3.73,0,0,1-.38,1.37,3.56,3.56,0,0,1-.82,1.1,3.65,3.65,0,0,1-1.2.73,4.05,4.05,0,0,1-1.48.27,4.1,4.1,0,0,1-1.48-.28,3.79,3.79,0,0,1-1.23-.8,3.86,3.86,0,0,1-.85-1.24,3.93,3.93,0,0,1-.31-1.57,3.85,3.85,0,0,1,1.16-2.8,3.79,3.79,0,0,1,1.23-.8,4.1,4.1,0,0,1,1.48-.28,3.73,3.73,0,0,1,2.15.62,4.4,4.4,0,0,1,1.45,1.74Z" transform="translate(0.11 -0.88)"/><path class="cls-1" d="M145.53,97.58V92.52a2.53,2.53,0,0,1,.2-1,2.75,2.75,0,0,1,.57-.82,2.54,2.54,0,0,1,.85-.55,2.84,2.84,0,0,1,1-.2,2.78,2.78,0,0,1,1.24.28,2.31,2.31,0,0,1,.94.78,2.25,2.25,0,0,1,.94-.78,2.71,2.71,0,0,1,1.23-.28,2.84,2.84,0,0,1,1,.2,2.54,2.54,0,0,1,.85.55,2.75,2.75,0,0,1,.57.82,2.53,2.53,0,0,1,.2,1v5.06h-1.37V92.83a1.68,1.68,0,0,0-.36-1.13,1.22,1.22,0,0,0-1-.42,1.37,1.37,0,0,0-1.08.42,2,2,0,0,0-.38,1.35v4.53h-1.37V93.05a2,2,0,0,0-.38-1.35,1.37,1.37,0,0,0-1.08-.42,1.24,1.24,0,0,0-1,.42,1.68,1.68,0,0,0-.36,1.13v4.75Z" transform="translate(0.11 -0.88)"/><path class="cls-1" d="M162.63,97.58V93.39a1.87,1.87,0,0,0-.71-1.55,2.64,2.64,0,0,0-1.72-.56,2.27,2.27,0,0,0-1.77.75,2.68,2.68,0,0,0-.68,1.86,2.57,2.57,0,0,0,.69,1.8,2.3,2.3,0,0,0,1.75.74,1.94,1.94,0,0,0,1-.28,3.1,3.1,0,0,0,.85-.74V97a4.35,4.35,0,0,1-.93.54,2.89,2.89,0,0,1-1.09.18,3.43,3.43,0,0,1-1.47-.31,3.39,3.39,0,0,1-1.17-.85,3.8,3.8,0,0,1-.76-1.27,4.35,4.35,0,0,1-.26-1.53,4.08,4.08,0,0,1,.26-1.5,3.42,3.42,0,0,1,.77-1.21,3.34,3.34,0,0,1,1.22-.81,4.21,4.21,0,0,1,1.59-.29,3.82,3.82,0,0,1,2.75,1,3.4,3.4,0,0,1,1,2.57v4.07Z" transform="translate(0.11 -0.88)"/><path class="cls-1" d="M165.3,90.13h1.3V91h0a2,2,0,0,1,.83-.77,2.69,2.69,0,0,1,1.19-.24H169v1.31h-.2a1.86,1.86,0,0,0-1.56.67,3.45,3.45,0,0,0-.54,2.15v3.48H165.3Z" transform="translate(0.11 -0.88)"/><path class="cls-1" d="M169.74,97.58V86.71h1.36v6.18h.58a1.18,1.18,0,0,0,1.14-.56l1.29-2.2h1.56l-1,1.68a9,9,0,0,1-.6.91,1.13,1.13,0,0,1-.57.45v0a2.19,2.19,0,0,1,1.29.7,2.34,2.34,0,0,1,.42,1.49v2.19h-1.36v-2a1.39,1.39,0,0,0-.33-1,1.18,1.18,0,0,0-.88-.33H171.1v3.38Z" transform="translate(0.11 -0.88)"/><path class="cls-1" d="M178.73,95.13,178.17,94,181.85,92a2.62,2.62,0,0,0-.74-.54,2.17,2.17,0,0,0-1-.17,2.31,2.31,0,0,0-1.74.72,2.84,2.84,0,0,0,0,3.71,2.31,2.31,0,0,0,1.74.72,2.26,2.26,0,0,0,1.7-.59,3.44,3.44,0,0,0,.8-1.74l1.38.17a3.71,3.71,0,0,1-.37,1.37,3.56,3.56,0,0,1-.82,1.1,3.65,3.65,0,0,1-1.2.73,4.12,4.12,0,0,1-3,0,3.94,3.94,0,0,1-1.24-.8,4,4,0,0,1-.84-1.24,3.93,3.93,0,0,1-.31-1.57,3.88,3.88,0,0,1,.31-1.56,4,4,0,0,1,.84-1.24,3.94,3.94,0,0,1,1.24-.8,4,4,0,0,1,1.47-.28,3.74,3.74,0,0,1,2.16.62,4.4,4.4,0,0,1,1.45,1.74Z" transform="translate(0.11 -0.88)"/><path class="cls-1" d="M189.41,91.43h-2.67v3.92a.92.92,0,0,0,.24.72,1.17,1.17,0,0,0,.78.21h1.65v1.3h-1.84a2.07,2.07,0,0,1-1.62-.64,2.53,2.53,0,0,1-.58-1.76V88.27h1.37v1.86h2.67Z" transform="translate(0.11 -0.88)"/><path class="cls-1" d="M191.18,87.89a.8.8,0,0,1,.6-.24.78.78,0,0,1,.6.24.85.85,0,0,1,.23.58.83.83,0,0,1-.23.57.76.76,0,0,1-.6.25.77.77,0,0,1-.6-.25.82.82,0,0,1-.22-.57.84.84,0,0,1,.22-.58m-.08,2.24h1.37v7.45H191.1Z" transform="translate(0.11 -0.88)"/><path class="cls-1" d="M194.64,97.58V93.24a3.18,3.18,0,0,1,.91-2.36,2.75,2.75,0,0,1,1-.67,3.25,3.25,0,0,1,1.26-.24,3.3,3.3,0,0,1,1.27.24,2.71,2.71,0,0,1,1,.67,3.19,3.19,0,0,1,.92,2.36v4.34h-1.37V93.24a1.92,1.92,0,0,0-.54-1.41,1.76,1.76,0,0,0-2.56,0,1.92,1.92,0,0,0-.54,1.41v4.34Z" transform="translate(0.11 -0.88)"/><path class="cls-1" d="M207.8,97.24a4.94,4.94,0,0,1-.87.36,3.4,3.4,0,0,1-.88.14,4.18,4.18,0,0,1-1.51-.28,3.69,3.69,0,0,1-1.22-.8A3.72,3.72,0,0,1,202.2,94a4.39,4.39,0,0,1,.27-1.55,3.8,3.8,0,0,1,.78-1.28,3.64,3.64,0,0,1,1.23-.84,3.86,3.86,0,0,1,1.57-.31,3.5,3.5,0,0,1,1.5.31,3.41,3.41,0,0,1,1.17.83,3.78,3.78,0,0,1,.74,1.19,3.82,3.82,0,0,1,.25,1.37V97a4.13,4.13,0,0,1-1.08,3.08,3.88,3.88,0,0,1-2.81,1.05,7.78,7.78,0,0,1-2.46-.43l.33-1.25c.46.13.83.22,1.14.28a4.14,4.14,0,0,0,.93.1,3.75,3.75,0,0,0,1-.12,2.39,2.39,0,0,0,.82-.39,1.92,1.92,0,0,0,.59-.74,2.53,2.53,0,0,0,.23-1.11V94a2.78,2.78,0,0,0-.69-2,2.36,2.36,0,0,0-3.47.06,3.05,3.05,0,0,0-.63,2,2.24,2.24,0,0,0,.72,1.73,2.48,2.48,0,0,0,1.78.67,2.28,2.28,0,0,0,.84-.16,7.37,7.37,0,0,0,.9-.44Z" transform="translate(0.11 -0.88)"/><path class="cls-1" d="M220.36,91.43h-1.05a2.67,2.67,0,0,0-1.8.65,2.45,2.45,0,0,0,0,3.55,2.67,2.67,0,0,0,1.8.65h1.05v1.3h-1.3a3.65,3.65,0,0,1-1.33-.25,3.88,3.88,0,0,1-1.21-.73,3.48,3.48,0,0,1-.88-1.18,4,4,0,0,1,0-3.12,3.58,3.58,0,0,1,.88-1.18,3.73,3.73,0,0,1,1.21-.74,3.65,3.65,0,0,1,1.33-.25h1.3Z" transform="translate(0.11 -0.88)"/><path class="cls-1" d="M221.45,92.3a3.9,3.9,0,0,1,.85-1.25,3.79,3.79,0,0,1,1.23-.8,4,4,0,0,1,2.95,0,3.94,3.94,0,0,1,1.24.8,3.75,3.75,0,0,1,.85,1.25,4,4,0,0,1,.3,1.55,4.07,4.07,0,0,1-.3,1.57,3.7,3.7,0,0,1-.85,1.24,3.78,3.78,0,0,1-1.24.8,4,4,0,0,1-2.95,0,3.63,3.63,0,0,1-1.23-.8,4,4,0,0,1-.85-4.36m1.81,3.41a2.49,2.49,0,0,0,3.5,0,2.87,2.87,0,0,0,0-3.71,2.49,2.49,0,0,0-3.5,0,2.84,2.84,0,0,0,0,3.71" transform="translate(0.11 -0.88)"/><path class="cls-1" d="M230,90.13h1.31V91h0a2,2,0,0,1,.83-.77,2.66,2.66,0,0,1,1.19-.24h.31v1.31h-.2a1.85,1.85,0,0,0-1.56.67,3.45,3.45,0,0,0-.54,2.15v3.48H230Z" transform="translate(0.11 -0.88)"/><path class="cls-1" d="M234.26,100.93V94.07a4.72,4.72,0,0,1,.28-1.67,3.66,3.66,0,0,1,.78-1.29,3.62,3.62,0,0,1,1.2-.84A3.72,3.72,0,0,1,238,90a4,4,0,0,1,1.6.32,3.51,3.51,0,0,1,1.22.88,3.91,3.91,0,0,1,.76,1.3,4.5,4.5,0,0,1,.26,1.57,3.66,3.66,0,0,1-.28,1.44,4,4,0,0,1-.79,1.19,3.68,3.68,0,0,1-1.16.79,3.51,3.51,0,0,1-1.35.28,4.21,4.21,0,0,1-2.11-.53V95.78a4.08,4.08,0,0,0,.91.46,2.82,2.82,0,0,0,1,.19,2.34,2.34,0,0,0,1.77-.7,2.87,2.87,0,0,0,0-3.72,2.34,2.34,0,0,0-1.79-.73,2.17,2.17,0,0,0-1.72.78,3.39,3.39,0,0,0-.68,2.26v6.61Z" transform="translate(0.11 -0.88)"/><path class="cls-1" d="M243,92.3a3.9,3.9,0,0,1,.85-1.25,3.79,3.79,0,0,1,1.23-.8,4,4,0,0,1,2.95,0,3.94,3.94,0,0,1,1.24.8,3.75,3.75,0,0,1,.85,1.25,4,4,0,0,1,.3,1.55,4.07,4.07,0,0,1-.3,1.57,3.7,3.7,0,0,1-.85,1.24,3.78,3.78,0,0,1-1.24.8,4,4,0,0,1-2.95,0,3.63,3.63,0,0,1-1.23-.8A4,4,0,0,1,243,92.3m1.81,3.41a2.49,2.49,0,0,0,3.5,0,2.87,2.87,0,0,0,0-3.71,2.49,2.49,0,0,0-3.5,0,2.84,2.84,0,0,0,0,3.71" transform="translate(0.11 -0.88)"/><path class="cls-1" d="M251.59,90.13h1.3V91h0a2,2,0,0,1,.83-.77,2.69,2.69,0,0,1,1.19-.24h.31v1.31h-.2a1.86,1.86,0,0,0-1.56.67A3.45,3.45,0,0,0,253,94.1v3.48h-1.36Z" transform="translate(0.11 -0.88)"/><path class="cls-1" d="M261.86,97.58V93.39a1.86,1.86,0,0,0-.7-1.55,2.65,2.65,0,0,0-1.72-.56,2.29,2.29,0,0,0-1.78.75,2.72,2.72,0,0,0-.67,1.86,2.57,2.57,0,0,0,.69,1.8,2.3,2.3,0,0,0,1.75.74,2,2,0,0,0,1-.28,2.93,2.93,0,0,0,.84-.74V97a4.07,4.07,0,0,1-.92.54,2.89,2.89,0,0,1-1.09.18,3.43,3.43,0,0,1-1.47-.31,3.39,3.39,0,0,1-1.17-.85,3.8,3.8,0,0,1-.76-1.27,4.36,4.36,0,0,1-.27-1.53,4.08,4.08,0,0,1,.27-1.5,3.44,3.44,0,0,1,2-2,4.3,4.3,0,0,1,1.6-.29,3.78,3.78,0,0,1,2.74,1,3.37,3.37,0,0,1,1,2.57v4.07Z" transform="translate(0.11 -0.88)"/><path class="cls-1" d="M268.8,91.43h-2.67v3.92a.92.92,0,0,0,.24.72,1.19,1.19,0,0,0,.79.21h1.64v1.3H267a2.07,2.07,0,0,1-1.62-.64,2.53,2.53,0,0,1-.58-1.76V88.27h1.36v1.86h2.67Z" transform="translate(0.11 -0.88)"/><path class="cls-1" d="M270.58,87.89a.87.87,0,0,1,1.2,0,.84.84,0,0,1,.22.58.82.82,0,0,1-.22.57.85.85,0,0,1-1.2,0,.82.82,0,0,1-.22-.57.84.84,0,0,1,.22-.58m-.08,2.24h1.36v7.45H270.5Z" transform="translate(0.11 -0.88)"/><path class="cls-1" d="M280.45,90.13,277.84,97a1.13,1.13,0,0,1-.41.62,1.23,1.23,0,0,1-.65.15,1.19,1.19,0,0,1-.64-.15,1.13,1.13,0,0,1-.41-.62l-2.6-6.84h1.49l2.18,5.77L279,90.13Z" transform="translate(0.11 -0.88)"/><path class="cls-1" d="M281,92.3a3.87,3.87,0,0,1,.84-1.25,3.94,3.94,0,0,1,1.24-.8,4,4,0,0,1,1.47-.28,3.89,3.89,0,0,1,2.72,1.08,3.9,3.9,0,0,1,.85,1.25,4,4,0,0,1,.3,1.55,4.07,4.07,0,0,1-.3,1.57,3.78,3.78,0,0,1-2.09,2,4.1,4.1,0,0,1-1.48.28,4,4,0,0,1-1.47-.28,3.78,3.78,0,0,1-1.24-.8,3.83,3.83,0,0,1-.84-1.24,3.89,3.89,0,0,1-.31-1.57A3.83,3.83,0,0,1,281,92.3m1.81,3.41a2.49,2.49,0,0,0,3.5,0,2.87,2.87,0,0,0,0-3.71,2.49,2.49,0,0,0-3.5,0,2.81,2.81,0,0,0,0,3.71" transform="translate(0.11 -0.88)"/><polyline class="cls-1" points="235.33 1.47 235.33 80.97 251.29 40.46 235.18 0.98"/><polyline class="cls-1" points="286.98 1.47 286.98 80.97 271.03 40.46 287.14 0.98"/><polyline class="cls-1" points="255.73 1.47 261.41 15.49 267.21 1.47 255.37 1.47"/><polyline class="cls-1" points="255.71 80.97 261.81 65.63 268.05 80.97 255.31 80.97"/></svg>